<svg width="138" height="125" viewBox="0 0 138 125" fill="none" xmlns="http://www.w3.org/2000/svg">
<g clip-path="url(#clip0_319_735)">
<path d="M61.2785 47.9168H3.86076C2.84876 47.9168 2.172 47.2996 2.172 46.3736V37.1144C2.172 36.1885 2.84876 35.5712 3.86076 35.5712H61.2785C62.2905 35.5712 62.9673 36.1885 62.9673 37.1144V46.3736C62.9673 47.2996 62.2905 47.9168 61.2785 47.9168Z" fill="#19AC63"/>
<path d="M54.5232 123.534H44.5662C43.5493 123.534 42.7018 122.919 42.7018 121.991V86.0948C42.7018 63.5074 52.5318 40.7655 70.3273 24.8304C87.7838 9.20503 111.009 0.541394 135.583 0.0772705C136.6 0.0772705 137.272 0.692234 137.272 1.62048V10.8797C137.272 11.808 136.6 12.423 135.583 12.423C114.737 12.8871 94.902 20.8081 80.3266 33.9582C65.2428 47.4178 56.212 67.0658 56.212 86.0948V121.991C56.212 123.074 55.5401 123.534 54.5232 123.534Z" fill="#19AC63"/>
<path d="M93.3645 123.533H83.4237C82.398 123.533 81.5432 122.759 81.5432 121.83V86.056C81.5432 59.5742 105.476 36.6543 135.392 35.5702C136.418 35.5702 137.272 36.3446 137.272 37.2737V46.3727C137.272 47.3018 136.609 47.9159 135.584 47.9159C113.702 48.845 95.0533 66.698 95.0533 86.056V121.99C95.0533 122.919 94.3902 123.533 93.3645 123.533Z" fill="#19AC63"/>
<path d="M135.263 12.4248H4.21038C3.02972 12.4248 2.1864 11.6986 2.1864 10.8271V1.67677C2.1864 0.805318 3.02972 0.0791016 4.21038 0.0791016H135.432C136.444 0.0791016 137.287 0.805318 137.287 1.67677V10.8271C137.118 11.6986 136.275 12.4248 135.263 12.4248Z" fill="#19AC63"/>
</g>
<defs>
<clipPath id="clip0_319_735">
<rect width="136.805" height="125" fill="white" transform="translate(0.820801)"/>
</clipPath>
</defs>
</svg>
